<svg width="34" height="30" viewBox="0 0 34 30" fill="none" xmlns="http://www.w3.org/2000/svg">
<path d="M1.37429 5.80022C4.04859 -0.282513 13.1727 -1.06907 16.7909 4.27954C19.8846 -2.06538 29.4807 -0.0203259 32.4697 5.80022C33.6757 8.1599 33.6233 10.6769 32.6794 12.9317C32.6794 12.9841 32.6794 13.0366 32.6794 13.089C32.6794 13.3512 32.5745 13.4561 32.4172 13.561C31.788 14.8719 30.8441 16.0779 29.7429 17.0743C27.9076 18.6998 25.6004 19.8534 23.5553 21.1644C20.5663 23.052 18.9408 25.3594 18.1542 28.8202C17.9969 29.4495 17.1579 29.5019 16.8433 28.9775C15.4799 26.6179 14.1166 24.3631 12.0715 22.4753C9.86914 20.4827 7.08996 19.1718 4.88759 17.1267C1.84622 14.4525 -0.408672 9.8379 1.37429 5.80022ZM16.8957 15.0816C16.9481 15.2914 16.9481 15.4487 17.0006 15.6584C16.8957 14.4524 16.8433 13.2463 16.8433 11.9878C16.7909 12.9841 16.8433 14.0329 16.8957 15.0816ZM5.62172 3.23079C5.67407 3.17835 5.72659 3.17835 5.72659 3.12592C4.73028 3.70273 3.83884 4.48929 3.2096 5.4856C3.26203 5.43316 3.31447 5.38072 3.41935 5.27585C3.94372 4.48929 4.67784 3.8076 5.62172 3.23079Z" fill="#BDBDBD"/>
</svg>
