<svg width="33" height="33" viewBox="0 0 33 33" fill="none" xmlns="http://www.w3.org/2000/svg">
<g clip-path="url(#clip0)">
<path d="M27.8167 21.1047C27.9176 20.903 27.9176 20.6003 27.7157 20.3984C25.6977 18.4812 23.7805 16.4632 21.8128 14.546C20.4506 13.2342 18.3315 10.863 16.4145 10.3585C15.1532 10.0053 13.4379 12.3261 12.6811 12.982C10.4611 14.8487 8.44315 17.1695 6.82869 19.5407C6.77824 19.6417 6.7277 19.7426 6.77824 19.8434V19.894C6.57643 22.1139 6.27372 24.3337 6.22327 26.604C6.22327 27.5123 6.02154 29.8834 6.98013 30.4889C7.0305 30.6402 7.18193 30.7412 7.38374 30.7412C8.39278 30.842 9.45235 30.8926 10.4613 30.9429C11.3695 30.9933 12.4794 31.0943 13.2866 30.5899C13.5389 30.6907 13.8415 30.5393 13.9425 30.2871C14.3461 28.9249 14.0938 27.2096 14.1947 25.7968C14.2957 24.5355 14.3461 23.1229 14.0434 21.8616C15.103 22.013 16.1624 22.1139 17.1714 22.2148C17.9786 22.3157 19.0886 22.467 19.9966 22.3662C19.9966 23.6779 19.9966 24.9895 19.9966 26.3013C19.9966 27.0076 19.9462 27.7644 19.8957 28.4707C19.8453 29.0257 19.593 29.5807 19.7444 30.1357C19.7444 30.1861 19.7947 30.2365 19.8453 30.2871C19.593 30.5392 19.7444 31.0942 20.1984 31.1446C21.5605 31.2456 22.9228 31.3465 24.285 31.3969C25.1932 31.4473 26.6057 31.5483 27.2616 30.842C27.4634 30.842 27.6148 30.6906 27.7157 30.4889C28.7247 27.7139 28.1193 23.9805 27.8167 21.1047Z" fill="#BDBDBD"/>
<path d="M32.6095 17.5731C31.7014 16.6649 30.4906 16.0595 29.532 15.2018C28.422 14.1928 27.413 13.0324 26.404 11.9225C23.3769 8.6431 20.5516 5.26283 17.1209 2.38707C16.8182 2.13481 16.4146 2.38707 16.4146 2.68978C14.5479 2.84114 12.0757 6.37277 11.0668 7.43226C7.93875 10.7621 4.6593 14.2433 0.92594 16.8668C0.623229 17.0685 0.724132 17.5227 1.02684 17.6235C1.63227 18.4812 2.4395 19.1876 3.19619 19.894C3.34755 20.0453 3.54935 20.0957 3.75116 20.0453C3.95297 20.1461 4.20523 20.1461 4.40704 19.9443C5.97104 18.5316 7.28279 16.9172 8.7459 15.4037C11.3694 12.7297 14.6488 10.8125 16.9696 7.88633C19.593 10.0558 22.1661 12.3261 24.5373 14.7478C26.0509 16.2613 27.7158 19.0363 29.7843 19.7426C29.8347 19.8434 29.986 19.894 30.087 19.894C30.4907 19.9443 30.8438 19.7426 31.197 19.5912C31.6006 19.3894 31.9032 19.0363 32.1556 18.6829C32.206 18.6326 32.206 18.5316 32.2565 18.4812C32.6601 18.4308 32.9123 17.9262 32.6095 17.5731Z" fill="#BDBDBD"/>
</g>
<defs>
<clipPath id="clip0">
<rect width="32" height="32" fill="white" transform="translate(0.743042 0.858276)"/>
</clipPath>
</defs>
</svg>
