<svg width="33" height="30" viewBox="0 0 33 30" fill="none" xmlns="http://www.w3.org/2000/svg">
<path d="M0.792988 5.48357C3.46729 -0.599165 12.5914 -1.38573 16.2096 3.96289C19.3033 -2.38204 28.8994 -0.336977 31.8884 5.48357C33.0944 7.84325 33.042 10.3602 32.0981 12.6151C32.0981 12.6675 32.0981 12.7199 32.0981 12.7724C32.0981 13.0346 31.9932 13.1394 31.8359 13.2443C31.2067 14.5552 30.2628 15.7613 29.1616 16.7576C27.3263 18.3832 25.0191 19.5368 22.974 20.8477C19.985 22.7354 18.3595 25.0427 17.5729 28.5036C17.4156 29.1328 16.5766 29.1853 16.262 28.6609C14.8986 26.3012 13.5353 24.0465 11.4902 22.1587C9.28784 20.166 6.50866 18.8551 4.30629 16.81C1.26492 14.1358 -0.989972 9.52125 0.792988 5.48357ZM16.3144 14.765C16.3668 14.9747 16.3668 15.132 16.4193 15.3417C16.3144 14.1357 16.262 12.9297 16.262 11.6712C16.2096 12.6675 16.262 13.7162 16.3144 14.765ZM5.04042 2.91414C5.09277 2.8617 5.14529 2.8617 5.14529 2.80926C4.14898 3.38608 3.25755 4.17264 2.6283 5.16895C2.68073 5.11651 2.73317 5.06407 2.83805 4.9592C3.36242 4.17264 4.09654 3.49095 5.04042 2.91414Z" fill="#E0E0E0"/>
</svg>
