<svg width="24" height="25" viewBox="0 0 24 25" fill="none" xmlns="http://www.w3.org/2000/svg">
<g clip-path="url(#clip0)">
<path d="M22.6059 1.56588C22.5653 1.5253 22.5653 1.44413 22.5247 1.40355C22.5247 1.32239 22.4841 1.20064 22.4029 1.11948C21.7536 0.510751 19.9274 0.875987 19.1158 0.916569C15.7475 0.997732 12.2575 1.0789 8.92983 1.44413C8.84867 1.44413 8.80808 1.48471 8.72692 1.52529C8.56459 1.56588 8.44285 1.64704 8.36168 1.80937C7.26598 4.52834 8.19936 8.14012 8.23994 11.0214C8.28052 13.01 8.03703 14.9984 7.99645 16.9464C5.80503 14.5115 1.46278 17.0681 0.894638 20.1929C0.48882 22.4249 2.43674 24.2917 4.50641 24.6975C5.80503 24.9816 7.14423 24.4135 8.03703 23.4801C8.60517 22.9119 8.84866 22.2221 8.88925 21.5322C9.05157 21.4916 9.17332 21.3698 9.13274 21.2075C8.88925 17.7987 9.17332 14.4304 9.33565 11.0215C9.41681 9.64171 9.2139 8.26193 9.13274 6.88215C11.0401 7.20681 13.272 6.80099 15.1388 6.63866C17.0868 6.47634 20.0492 5.90819 21.8348 6.96332C21.916 9.15473 21.9971 11.3867 21.7942 13.6188C21.7131 14.7551 21.5913 15.8508 21.5508 16.9871C20.658 16.216 18.9535 16.3784 18.0201 16.7842C16.3969 17.5552 15.1388 19.3408 15.1388 21.167C15.1388 23.4395 17.6143 24.8599 19.684 24.5759C21.7131 24.2918 23.3364 22.3844 22.7276 20.4771C22.7276 19.5843 22.5653 18.6509 22.6059 17.7581C22.6464 16.0943 22.8494 14.4304 23.0116 12.7665C23.1334 11.265 23.1334 9.72294 23.1334 8.22142C23.1334 6.11103 23.3364 3.55438 22.6059 1.56588Z" fill="#E0E0E0"/>
</g>
<defs>
<clipPath id="clip0">
<rect width="24" height="24" fill="white" transform="translate(0 0.770996)"/>
</clipPath>
</defs>
</svg>
