<svg width="25" height="34" viewBox="0 0 25 34" fill="none" xmlns="http://www.w3.org/2000/svg">
<path d="M24.3482 16.941C24.4648 13.9688 23.4157 12.4536 21.3177 11.8708C21.0262 6.21771 18.1707 0.27332 11.6435 0.62299C6.8646 0.914477 2.49382 6.85887 3.95078 11.5794C3.07661 11.7542 2.26071 12.1039 1.79448 12.7449C1.50309 12.8032 1.26998 12.978 1.26998 13.3277C0.92031 18.3397 0.279248 23.4098 0.395805 28.4219C0.454083 31.394 2.5521 32.4431 5.17463 32.851C8.84616 33.4338 12.7509 32.9093 16.4223 32.4431C18.1707 32.2099 22.5998 32.4431 23.6489 30.6947C24.4648 29.3544 24.2899 27.5477 24.3482 26.0324C24.4648 23.002 24.2315 19.9715 24.3482 16.941ZM14.8487 22.9437C14.6739 23.0602 14.5573 23.1768 14.4991 23.3516C14.2077 23.3516 13.9163 23.5847 13.9163 23.9344C13.9163 24.6338 14.3825 25.2747 14.6157 25.9742C14.7906 26.4404 14.9071 26.8483 14.9654 27.3146C13.625 27.2563 12.3429 27.4311 11.0025 27.4311C11.1773 26.2072 11.3521 24.9834 11.2939 23.7596C11.2939 23.5265 11.119 23.3516 10.8859 23.2934C9.48722 22.4775 8.67133 21.4284 8.78788 19.6801C8.90444 17.99 10.2448 16.4748 11.7601 15.9503C16.0727 14.5516 18.6368 20.7291 14.8487 22.9437ZM13.5084 11.8708C11.7017 11.8125 9.95336 11.6377 8.14682 11.5211C8.03027 11.5211 7.91371 11.5211 7.79715 11.5211C7.73887 8.60712 8.72961 5.11052 12.2263 4.99396C15.9561 4.87731 17.1217 8.60712 17.2383 11.6377C16.0143 11.7542 14.7906 11.9291 13.5084 11.8708ZM21.609 13.5025L21.5508 13.4443C22.0171 13.6192 22.3084 14.027 22.4832 14.4933C22.2502 14.0853 21.9587 13.794 21.609 13.5025Z" fill="#BDBDBD"/>
</svg>
