<svg width="33" height="33" viewBox="0 0 33 33" fill="none" xmlns="http://www.w3.org/2000/svg">
<circle cx="16.4326" cy="16.4702" r="16.1172" fill="#E0E0E0"/>
<path d="M12.4907 23.1286C12.3445 23.1286 12.2043 23.0705 12.1009 22.9671C11.9976 22.8638 11.9395 22.7236 11.9395 22.5774L11.9395 10.4515C11.9395 10.3557 11.9645 10.2616 12.012 10.1784C12.0594 10.0952 12.1278 10.0258 12.2102 9.97708C12.2927 9.92835 12.3864 9.90194 12.4822 9.90046C12.5779 9.89898 12.6724 9.92248 12.7564 9.96864L23.7799 16.0316C23.8663 16.0792 23.9384 16.1491 23.9886 16.234C24.0388 16.3189 24.0653 16.4158 24.0653 16.5144C24.0653 16.6131 24.0388 16.7099 23.9886 16.7949C23.9384 16.8798 23.8663 16.9497 23.7799 16.9973L12.7564 23.0602C12.675 23.105 12.5836 23.1285 12.4907 23.1286Z" fill="white"/>
</svg>
