<svg width="33" height="33" viewBox="0 0 33 33" fill="none" xmlns="http://www.w3.org/2000/svg">
<path fill-rule="evenodd" clip-rule="evenodd" d="M16.1172 32.2344C25.0185 32.2344 32.2344 25.0185 32.2344 16.1172C32.2344 7.21592 25.0185 1.39193e-06 16.1172 8.96701e-07C7.21591 4.01467e-07 -4.01467e-07 7.21591 -8.96701e-07 16.1172C-1.39193e-06 25.0185 7.21591 32.2344 16.1172 32.2344ZM11.7855 22.6141C11.8889 22.7175 12.0291 22.7755 12.1753 22.7755C12.2682 22.7755 12.3595 22.752 12.4409 22.7072L23.4645 16.6442C23.5509 16.5967 23.623 16.5268 23.6732 16.4418C23.7233 16.3569 23.7498 16.2601 23.7498 16.1614C23.7498 16.0628 23.7233 15.9659 23.6732 15.881C23.623 15.7961 23.5509 15.7262 23.4645 15.6786L12.4409 9.61561C12.357 9.56945 12.2625 9.54595 12.1667 9.54743C12.071 9.54891 11.9772 9.57532 11.8948 9.62406C11.8123 9.67279 11.744 9.74217 11.6965 9.82536C11.6491 9.90855 11.6241 10.0027 11.6241 10.0984L11.6241 22.2244C11.6241 22.3705 11.6822 22.5107 11.7855 22.6141Z" fill="#E0E0E0"/>
</svg>
