<svg width="25" height="26" viewBox="0 0 25 26" fill="none" xmlns="http://www.w3.org/2000/svg">
<path d="M5.75774 24.3089C7.81769 23.0515 9.02155 20.5368 10.3859 18.5303C14.6396 20.51 20.0971 19.0119 22.9328 15.3735C26.0897 11.3339 24.8858 5.55536 21.1137 2.45207C16.9136 -0.945497 11.5096 0.231613 7.9247 3.78969C6.05202 5.63562 5.14244 7.98983 5.00867 10.5581C4.92842 12.19 5.22269 14.4372 6.53357 15.5608C4.28636 17.594 -1.38517 21.6069 1.58436 24.7636C2.65446 25.8872 4.74115 24.951 5.75774 24.3089ZM9.39608 12.2167C7.95145 7.45478 16.1645 2.18454 19.7493 6.94649C21.3812 9.11344 20.1506 12.2167 18.4652 13.9289C17.3149 15.0792 15.6562 15.5608 14.0778 15.427C11.9643 15.2398 10.6267 13.7149 9.39608 12.2167Z" fill="#BDBDBD"/>
</svg>
