<svg width="153" height="121" viewBox="0 0 153 121" fill="none" xmlns="http://www.w3.org/2000/svg">
<path d="M64.7958 41.9789C64.7958 46.5035 66.5914 50.8432 69.7884 54.0449C72.9853 57.2467 77.3222 59.0489 81.8468 59.0558C82.7137 59.0595 83.5794 58.9885 84.4342 58.8436C75.5288 61.3569 66.1116 61.4302 57.1682 59.0558C61.0975 53.7342 63.2112 47.2899 63.1968 40.6749C63.2085 34.0951 61.1461 27.679 57.3027 22.3383C53.4593 16.9977 48.0305 13.0042 41.7877 10.9254C35.5449 8.84653 28.8058 8.78812 22.5279 10.7584C16.25 12.7287 10.7528 16.6275 6.81738 21.9007C10.0856 17.3723 14.0853 13.4199 18.6521 10.2057C25.1305 5.60995 32.5799 2.56722 40.4232 1.3132C48.2665 0.0591671 56.2932 0.627494 63.8816 2.97415C71.47 5.32081 78.4163 9.38281 84.1825 14.8455C89.9487 20.3082 94.38 27.025 97.1331 34.4755C95.4404 31.0159 92.6252 28.232 89.1469 26.5781C85.6687 24.9241 81.7325 24.4976 77.9807 25.3681C74.2289 26.2387 70.8828 28.3549 68.4883 31.3716C66.0937 34.3883 64.7922 38.1274 64.7958 41.9789Z" fill="#EE5092"/>
<path d="M98.903 41.9789C98.9078 44.9899 98.115 47.9484 96.6052 50.5535C95.0954 53.1585 92.9225 55.3172 90.3076 56.8099C88.3881 57.6138 86.4195 58.2948 84.4135 58.8488C83.5587 58.9937 82.6931 59.0647 81.8261 59.0609C78.7769 59.0701 75.7808 58.2626 73.1492 56.7223C70.5175 55.1821 68.3462 52.9653 66.861 50.3022C65.3757 47.6392 64.6306 44.627 64.703 41.5786C64.7754 38.5302 65.6628 35.5568 67.2728 32.9673C68.8829 30.3777 71.157 28.2666 73.8588 26.853C76.5606 25.4395 79.5917 24.7752 82.637 24.9291C85.6824 25.083 88.631 26.0496 91.1766 27.7283C93.7221 29.4071 95.7717 31.7368 97.1125 34.4755C97.1346 34.4915 97.1526 34.5125 97.1652 34.5368C97.1778 34.561 97.1845 34.5879 97.1849 34.6152C97.7496 36.1405 98.2316 37.6952 98.6287 39.2725C98.8121 40.163 98.904 41.0698 98.903 41.9789Z" fill="#3F9DD7"/>
<path d="M57.1527 59.061C52.4129 65.6 45.3277 70.0524 37.3799 71.4865C29.4321 72.9207 21.2377 71.2254 14.5113 66.7554C7.78502 62.2854 3.04812 55.3872 1.29193 47.5044C-0.46427 39.6215 0.896343 31.3648 5.08903 24.4623C5.60651 23.5774 6.21714 22.7339 6.81742 21.8749C9.92863 17.726 14.0173 14.4107 18.7195 12.2239C19.3832 23.0817 23.4551 33.4535 30.3556 41.8628C37.256 50.2721 46.6333 56.2904 57.1527 59.061Z" fill="#00ACA8"/>
<path d="M63.1968 40.6749C63.2138 47.2912 61.102 53.7374 57.1734 59.061C46.6551 56.2946 37.2773 50.2814 30.3742 41.877C23.4712 33.4725 19.3946 23.1051 18.7246 12.2498C23.4967 10.0381 28.749 9.06434 33.9967 9.41838C39.2445 9.77243 44.3184 11.4429 48.7502 14.2755C53.1819 17.1081 56.8286 21.0116 59.3535 25.6256C61.8784 30.2395 63.2002 35.4153 63.1968 40.6749Z" fill="#FCD444"/>
<path d="M45.6853 84.5365C45.651 86.1928 45.7827 87.8484 46.0786 89.4784C44.715 84.1245 41.8874 79.256 37.9127 75.4185C42.3069 74.3255 46.4991 72.5403 50.3322 70.1299C47.3919 74.3665 45.7747 79.3803 45.6853 84.5365Z" fill="#80CFD5"/>
<path d="M33.6125 93.2871V107.735H26.5489V94.3221C26.5489 91.4035 24.717 90.0373 22.4557 90.0373C19.8683 90.0373 18.0829 91.5432 18.0829 94.8861V107.735H11.0193V84.1795H18.0829V86.3891C19.3508 84.6504 21.7053 83.5171 24.8102 83.5171C29.5606 83.5171 33.6125 86.9066 33.6125 93.2871Z" fill="white"/>
<path d="M57.6081 84.1794L49.5612 107C46.9273 114.504 42.7357 117.448 36.1482 117.117V110.53C39.4445 110.53 40.997 109.495 42.0319 106.623L32.6655 84.1794H40.4277L45.6543 98.5757L50.0787 84.1794H57.6081Z" fill="white"/>
<path d="M80.667 84.1794V107.709H73.6085V105.494C72.0561 107.285 69.7481 108.366 66.5967 108.366C60.4335 108.366 55.3467 102.954 55.3467 95.9469C55.3467 88.9403 60.4335 83.5274 66.5967 83.5274C69.7481 83.5274 72.0561 84.609 73.6085 86.3994V84.1794H80.667ZM73.6085 95.9418C73.6085 92.4126 71.254 90.2029 68.0094 90.2029C64.7648 90.2029 62.4051 92.4126 62.4051 95.9418C62.4051 99.471 64.7596 101.686 68.0094 101.686C71.2592 101.686 73.6085 99.4969 73.6085 95.9418Z" fill="white"/>
<path d="M105.697 93.2871V107.735H98.639V94.3221C98.639 91.4035 96.8071 90.0373 94.5457 90.0373C91.9583 90.0373 90.1678 91.5432 90.1678 94.8861V107.735H83.1094V84.1795H90.1678V86.3891C91.4408 84.6504 93.7902 83.5171 96.895 83.5171C101.651 83.5171 105.697 86.9066 105.697 93.2871Z" fill="white"/>
<path d="M127.054 100.646C127.054 106.058 122.35 108.366 117.263 108.366C112.559 108.366 108.983 106.576 107.146 102.767L113.263 99.2846C113.879 101.07 115.193 102.058 117.263 102.058C118.96 102.058 119.809 101.541 119.809 100.599C119.809 98.0116 108.228 99.3778 108.228 91.2378C108.228 86.1044 112.559 83.517 117.455 83.517C121.263 83.517 124.653 85.2144 126.629 88.5521L120.606 91.8019C119.949 90.5754 119.007 89.732 117.455 89.732C116.228 89.732 115.478 90.2029 115.478 91.0463C115.462 93.7321 127.054 91.9416 127.054 100.646Z" fill="white"/>
<path d="M152.721 84.1794V107.709H145.678V105.494C144.126 107.285 141.823 108.366 138.666 108.366C132.503 108.366 127.421 102.954 127.421 95.9469C127.421 88.9403 132.503 83.5274 138.666 83.5274C141.823 83.5274 144.126 84.609 145.678 86.3994V84.1794H152.721ZM145.662 95.9418C145.662 92.4126 143.313 90.2029 140.063 90.2029C136.814 90.2029 134.464 92.4126 134.464 95.9418C134.464 99.471 136.819 101.686 140.063 101.686C143.308 101.686 145.678 99.4969 145.678 95.9418H145.662Z" fill="white"/>
<path d="M72.0466 113.151V112.281H66.2477V120.362H72.0466V119.491H67.177V116.68H71.5643V115.81H67.177V113.151H72.0466Z" fill="white"/>
<path d="M73.3516 117.597H76.3981V116.739H73.3516V117.597Z" fill="white"/>
<path d="M78.7752 119.491V112.281H77.8577V120.362H83.186V119.491H78.7752Z" fill="white"/>
<path d="M90.3103 113.151V112.281H84.5115V120.362H90.3103V119.491H85.4407V116.68H89.8281V115.81H85.4407V113.151H90.3103Z" fill="white"/>
<path d="M98.4611 120.362H99.4609L95.8969 112.281H94.8971L91.3331 120.362H92.3329L93.1445 118.527H97.6495L98.4611 120.362ZM93.5209 117.656L95.4029 113.41L97.2731 117.656H93.5209Z" fill="white"/>
<path d="M107.023 114.869C107.023 113.351 105.717 112.281 104.047 112.281H100.765V120.362H101.683V117.456H103.823L105.87 120.362H106.917L104.823 117.374C106.105 117.103 107.023 116.139 107.023 114.869ZM101.683 113.151H103.882C105.199 113.151 106.093 113.786 106.093 114.869C106.093 115.951 105.199 116.586 103.882 116.586H101.683V113.151Z" fill="white"/>
<path d="M108.592 120.362H109.509V113.786L114.52 120.362H115.437V112.281H114.52V118.856L109.509 112.281H108.592V120.362Z" fill="white"/>
<path d="M117.467 120.362H118.384V112.281H117.467V120.362Z" fill="white"/>
<path d="M120.423 120.362H121.34V113.786L126.351 120.362H127.269V112.281H126.351V118.856L121.34 112.281H120.423V120.362Z" fill="white"/>
<path d="M133.027 116.974H135.344V118.903C134.744 119.362 133.873 119.656 133.121 119.656C131.38 119.656 129.91 118.127 129.91 116.315C129.91 114.516 131.38 112.987 133.121 112.987C134.003 112.987 135.05 113.387 135.638 114.01L136.261 113.375C135.508 112.61 134.238 112.14 133.121 112.14C130.886 112.14 128.98 114.045 128.98 116.315C128.98 118.586 130.886 120.503 133.121 120.503C134.238 120.503 135.508 120.021 136.261 119.268V116.104H133.027V116.974Z" fill="white"/>
</svg>
