<svg width="16" height="17" viewBox="0 0 16 17" fill="none" xmlns="http://www.w3.org/2000/svg">
<path d="M10.5 1.5C9.7973 1.49984 9.10433 1.66428 8.47662 1.98015C7.84892 2.29603 7.30393 2.75454 6.88533 3.31896C6.46673 3.88337 6.18617 4.538 6.06611 5.23037C5.94606 5.92274 5.98986 6.6336 6.194 7.306L1 12.5V15.5H4L9.194 10.306C9.81295 10.4939 10.4651 10.5461 11.1061 10.4591C11.7471 10.3722 12.3617 10.148 12.9082 9.80202C13.4548 9.45601 13.9202 8.99624 14.273 8.45405C14.6257 7.91187 14.8575 7.3 14.9524 6.66016C15.0472 6.02033 15.0031 5.36755 14.8229 4.74632C14.6427 4.12509 14.3307 3.55002 13.9081 3.06028C13.4855 2.57054 12.9624 2.17766 12.3742 1.90841C11.7861 1.63915 11.1468 1.49985 10.5 1.5ZM10.5 9.5C10.1558 9.49981 9.81342 9.44893 9.484 9.349L8.9105 9.175L8.487 9.5985L6.8965 11.189L6.207 10.5L5.5 11.207L6.1895 11.8965L5.3965 12.6895L4.707 12L4 12.707L4.6895 13.3965L3.586 14.5H2V12.914L6.901 8.013L7.325 7.5895L7.151 7.016C6.93729 6.3115 6.95117 5.55754 7.19068 4.86138C7.43018 4.16522 7.8831 3.56231 8.48502 3.13841C9.08694 2.71451 9.8072 2.49121 10.5433 2.50027C11.2795 2.50932 11.994 2.75028 12.5854 3.18886C13.1767 3.62744 13.6146 4.24131 13.8369 4.94315C14.0592 5.64499 14.0545 6.39906 13.8236 7.09809C13.5926 7.79712 13.1471 8.40553 12.5504 8.83675C11.9537 9.26797 11.2362 9.50006 10.5 9.5Z" fill="#3F3F3F"/>
<path d="M11 6.5C11.5523 6.5 12 6.05228 12 5.5C12 4.94772 11.5523 4.5 11 4.5C10.4477 4.5 10 4.94772 10 5.5C10 6.05228 10.4477 6.5 11 6.5Z" fill="#3F3F3F"/>
</svg>
