<svg width="25" height="25" viewBox="0 0 25 25" fill="none" xmlns="http://www.w3.org/2000/svg">
<g clip-path="url(#clip0)">
<path d="M23.007 2.6948C19.354 -1.25216 12.9298 0.133522 10.4105 4.54228C8.35308 8.15326 10.5365 14.7874 14.6093 15.9211C14.6933 15.963 14.7773 15.9211 14.8612 15.8791C17.2126 16.9288 20.2357 15.5432 22.2091 13.6958C25.4422 10.6725 26.0721 6.05385 23.007 2.6948ZM20.2357 2.23293C20.3617 2.27492 20.5296 2.35889 20.6556 2.40088C20.6136 2.44287 20.6136 2.48486 20.6136 2.52685C20.4876 2.44287 20.3617 2.35889 20.2357 2.27492C20.2357 2.27492 20.2357 2.27492 20.2357 2.23293Z" fill="white"/>
<path d="M13.2237 16.341C13.1818 16.299 13.1397 16.299 13.0558 16.2569C12.9298 16.131 12.7619 16.089 12.5939 16.131C12.3 16.089 12.0481 16.047 11.7542 15.921C11.1663 15.6271 10.7045 15.0392 10.2846 14.4934C9.4868 13.4017 8.98294 12.1421 8.26914 11.0084C8.10119 10.7144 7.7233 10.8404 7.63932 11.1343C5.5819 13.4857 2.60075 15.3331 1.42508 18.3143C1.25713 18.7761 1.13117 19.322 1.04719 19.8678C0.921227 19.9938 0.879239 20.1618 0.963215 20.3297C0.963215 20.3717 1.0052 20.4137 1.0052 20.4557C1.0052 20.9595 1.04719 21.4634 1.21514 21.8833C0.963215 22.2192 0.669298 22.5551 0.41737 22.891C0.0814649 23.3528 -0.212452 23.7727 0.207429 24.2766C0.62731 24.8225 1.34111 24.6545 1.80298 24.3185C2.05491 24.1506 2.39081 23.8147 2.60075 23.4788C2.72671 23.5208 2.85268 23.5628 3.02063 23.6048C4.99407 24.0666 7.21944 22.1352 8.60505 21.0015C9.99065 19.9098 11.6282 18.6082 12.7619 17.2226C12.9718 17.1806 13.1398 17.0966 13.3077 16.9287C13.4756 16.7608 13.4337 16.425 13.2237 16.341ZM7.84919 13.3598C7.84919 13.2758 7.89118 13.2339 7.93317 13.1919C8.01715 13.1079 8.10112 12.9819 8.1851 12.856C8.22709 12.94 8.26907 13.0239 8.26907 13.108C8.10119 13.1079 7.93317 13.2339 7.84919 13.3598Z" fill="white"/>
</g>
<defs>
<clipPath id="clip0">
<rect width="25" height="24.9999" fill="white"/>
</clipPath>
</defs>
</svg>
